<?xml version="1.0" standalone="no"?>
<!DOCTYPE svg PUBLIC "-//W3C//DTD SVG 20010904//EN"
 "http://www.w3.org/TR/2001/REC-SVG-20010904/DTD/svg10.dtd">
<svg version="1.0" xmlns="http://www.w3.org/2000/svg"
 width="128.000000pt" height="128.000000pt" viewBox="0 0 128.000000 128.000000"
 preserveAspectRatio="xMidYMid meet">

<g transform="translate(0.000000,128.000000) scale(0.100000,-0.100000)"
fill="#000000" stroke="none">
<path d="M140 1014 c-39 -40 -42 -45 -20 -39 64 19 70 24 70 55 0 16 -1 30 -3
30 -2 0 -23 -21 -47 -46z"/>
<path d="M620 1015 c0 -48 11 -56 51 -35 37 20 21 80 -22 80 -28 0 -29 -2 -29
-45z"/>
<path d="M760 1024 c0 -27 -7 -51 -21 -68 l-21 -27 26 -60 c14 -33 26 -62 26
-65 0 -2 -17 -4 -38 -4 -37 0 -39 2 -61 55 -13 30 -29 55 -37 55 -10 0 -14
-14 -14 -55 l0 -55 -35 0 c-19 0 -35 -2 -35 -5 0 -3 19 -35 43 -70 l43 -64 94
94 c52 52 98 95 102 95 5 0 8 -47 8 -105 l0 -104 108 -3 107 -3 3 -108 3 -108
46 -70 c25 -38 49 -69 53 -69 19 0 100 188 100 233 0 30 -190 319 -205 313
-13 -5 -139 9 -185 21 -25 6 -25 6 -3 12 21 6 19 11 -42 106 l-65 100 0 -41z"/>
<path d="M172 792 c-54 -145 -82 -233 -82 -260 0 -23 2 -42 5 -42 3 0 28 11
55 25 41 21 64 25 131 25 65 0 80 -3 76 -14 -3 -7 -15 -46 -27 -85 l-21 -71
-58 0 c-45 0 -70 6 -107 27 l-49 27 20 -30 c11 -17 58 -90 105 -162 81 -126
88 -134 145 -162 233 -115 515 -72 706 107 38 36 68 68 65 70 -2 2 -22 -5 -45
-16 -38 -20 -55 -21 -258 -19 l-218 3 103 49 c56 27 102 52 102 55 0 4 -45 29
-100 56 l-100 49 0 53 0 53 -53 0 c-51 0 -55 2 -107 55 l-54 55 102 0 c56 0
102 3 102 8 0 4 -80 87 -178 185 l-178 178 -82 -219z"/>
<path d="M862 590 c-84 -21 -155 -40 -158 -43 -3 -3 26 -53 63 -112 l69 -106
97 146 c53 79 97 147 97 150 0 7 6 8 -168 -35z"/>
</g>
</svg>
